<mxfile host="app.diagrams.net" modified="2023-10-25T07:22:34.247Z" agent="Mozilla/5.0 (Windows NT 10.0; Win64; x64) AppleWebKit/537.36 (KHTML, like Gecko) Chrome/117.0.0.0 Safari/537.36 OPR/103.0.0.0" etag="ML4NIW-TXHzVTtJsYhdO" version="22.0.6" type="github">
  <diagram name="Page-1" id="e7e014a7-5840-1c2e-5031-d8a46d1fe8dd">
    <mxGraphModel dx="1491" dy="769" grid="1" gridSize="10" guides="1" tooltips="1" connect="1" arrows="1" fold="1" page="1" pageScale="1" pageWidth="1169" pageHeight="826" background="none" math="0" shadow="0">
      <root>
        <mxCell id="0" />
        <mxCell id="1" parent="0" />
        <mxCell id="zrbf7OsW8ISraO48o7aK-41" value="&lt;b&gt;&lt;font style=&quot;font-size: 16px;&quot;&gt;package Address_Bot]&lt;/font&gt;&lt;/b&gt;" style="html=1;whiteSpace=wrap;" parent="1" vertex="1">
          <mxGeometry x="90" y="170" width="160" height="60" as="geometry" />
        </mxCell>
        <mxCell id="zrbf7OsW8ISraO48o7aK-43" value="&lt;h1&gt;&lt;span style=&quot;background-color: initial;&quot;&gt;ПЕРСОНАЛЬНИЙ ПОМІЧНИК&amp;nbsp;&lt;/span&gt;&lt;/h1&gt;&lt;h1&gt;&lt;span style=&quot;background-color: initial; font-size: 12px; font-weight: normal;&quot;&gt;Ця програма використовує класи та об&#39;єктно-орієнтований підхід для організації та роботи з даними у адресній книзі. Це простий, але ефективний спосіб управління контактами, а також враховує валідацію телефонних номерів та електронних адрес.&lt;/span&gt;&lt;br&gt;&lt;/h1&gt;" style="text;html=1;strokeColor=none;fillColor=none;spacing=5;spacingTop=-20;whiteSpace=wrap;overflow=hidden;rounded=0;" parent="1" vertex="1">
          <mxGeometry x="90" y="50" width="750" height="120" as="geometry" />
        </mxCell>
        <mxCell id="FmlcawvMYQFnZqVSC0_z-1" value="" style="shape=image;verticalLabelPosition=bottom;labelBackgroundColor=default;verticalAlign=top;aspect=fixed;imageAspect=0;image=data:image/png,iVBORw0KGgoAAAANSUhEUgAAAEYAAABOCAYAAACdfWDpAAAgAElEQVR4Ae18B1SVx9Z2cu9Vk1xjLLFGBbui2I29ooJRb2JJ1CjYFQUR6eUA0kGQQxPRaCxYEKUpoNjoamIHsRtBKaJJ7FIPz7/2zJlzXqol+e6/vrU+XOO8dd7Zz+w2e/acj/Cef8+fP8euXbugp6eHiRMnYvbs2RgyZAiWL1+OY8eOQVNTEx9//DHmzZuHhw8fomfPnmjQoAG+/fZbdr5792507twZ/fv3h4mJCWbMmIFmzZrB3t4eeXl5kMvl6NKlCwYOHAgPDw8UFBRg5syZGDFiBHR1dTFnzhxoa2tj5cqVKCoqQmVlJX777TcsW7YMgwcPxqxZs9hznp6e7D6Rd/36dSxcuBAdO3bE1KlTERcXhzdv3tRL+Uf13q3j5uvXr5Gfn4/79+8jJyeHdYw6+fLlS9y7dw+3bt1iIJSVlbHz27dvs/Py8nK8evWKPU/PFRYWsnLnzh08fvwYdP/Zs2es3bt37+LJkyfsGh3Tt3Jzc1khIH7//XdV7xQKBXtW9OfBgwegASTQ6I/6Qf2jdqi/L168UN1TNVLt4IOAqdbG//gpESiI/B//mPID/yuA+W+BIf3O/wEjRUNy/P8VGCEipCPqKuIZSZ//K4f/NWCIQFKuJSUlePHyBXJyc3DmbAZiDkdj5+4d2BQaDHmAHzbKfSAP9EPo1hDs2ReGo8cScPHyRRQ9LsLr169QWlqKioqKvw0c6hcNCvWNlLQofx8w3ADwDkuOS0pLmYW4n5ODhKPx8AvyhZmDCda5roJ9kClcdlvAM9IaPvF22JhoD7/jMmw8ZocNh63hEWGF9TvMYeNvAhOnlbBxtkDothCkpqei6PFjZuHKysvfG6RKBVBaUsasKFnDa9eykJR8GkfijiA6JgpRMVH4+4CBEo1KMAvy8vVLFBQU4vjJRHj6ucHU1RCO203hk2CHwDQHBGTYw/+MDQIy7JTFHgHpdF2mLPbwz7Bjz8jP2LLnA1Id4BVjA5tNxjB1WoXgrQH49fx5PPn9CYrfFFcBSDI2quvEGeQukDk/dfokNm0OgvdGD4Tu2oQDcXtxJDkaRzOO4FjGkb8LGEIDrLx8+QL379/DwcgIWLmYwH7LGvgmEvFEsB0C02UITHNEUKoTgtOcEMSKI4LoGpV0B1YHpjsikB07ITh1PX823QGBDFA7BqJ3jCWs/NfA2dcBJ04dZ87gm2LhuFWC/tEf/f+muBjEtbFHYhEQ4o/9sWE4fzsDN4qu4ubjK6zceJKJm4/p/OpfA4Z/mH+8pLiEOV8xsVGw9jTF+l1mCEixV4ERlE6EExAOjODAdLpHRXCIuE61jBHOQCQgVYWDRu0QuHTdP8MeGxPtYBdqAnf5eiSlnEZR0SOUl5dxUBSVePrnU6RnpGPrjq04dDQcV3J+ZcRzIDJx6zEBUrX8dVFSAE+ePEZaeio8ApzhtN0U/kmcaD7inBOkxLHrjBvUYHDgHBCULmNc43vCGs5Rxth4yoadCw6idghMwVnEZQEEULo9fBKsYR9ihk07gnDl6hU8e/YUjwof4Uj8YezYvx3pWUm4wTiCwMhiYNxQAXIVN54Qt3CA/hIwZWXluHvvHvZG7IZDkDl84m0QkE7iIsSBEx6gFAsBCNVEKBEnAGOEsnMHeB41w2LXWRj97dcwCTKAPNmWAcbfU76r5DzSS0w0iYsIoBR7uB20gGuwAw5FH8SBg+HYE7kLF387pySaAOGgCBBqqz8YGJqEXbx4Ef4/+cJltznkSfZKEaER5IBICeGgyFSixDikxnMO8Iy3wFzLqdAa2ANtW7XD1zoDYPnzMkYwcYe6TfU3uHiSyHHQiIN8jtnAOsAY6zfIEJ8ag2sFl98JEAHSBwFDk7CUtGR4h7rAI9IK/qkESu2dro0QcY1zDCeGrtnvX4lpK8ejrWZrNqO2tLZEp85dMHrGULjHrVMqZTUgop26ar/TdnAJs4DPVnckpB9GZt5FlagIAOrinvcG5vmz5zhxKhFeWxzhHWsFMqF1day+61xHkE7h7zuEr8aoGYPQsVMHFqI4deoUCh8VwszcHB07d8A822nwPWn71m9JRZK+758sg1u4JTy3OONwchQy8y5UA0cqVurj9wLmxQsC5Tg8tznCO84aAWmCfd8fHDUBXJHOtZqKJs0aY/6P85GVlYWyklKUl5Xj5s2bmDHjO3Tq0REGjjPgl1Q/OOp2RZ9kjKPdIiwYOHEp0cjKr41zPtAqvXn9BskpSfDeth7ecVZKpSk+/uE16RoSwxVec9C+cxvMmjkLmZlXUVFegfKKcuQ9zIPh6pVo3rgFBun0gVei5Vu5RnCq4EY6D0iVwf2AJby3uODYmSPILiSdUxUM6fk7cQzNI86fPw/f7e7wirFCYB2cIu2I6Fz9NQeFgPFKsMSUxWPR5qvWcFrvxMxs8Zs32Ojji95aWhgwvC+Wuf3wVo6Rfo/3R637yK9y22eOjds8kXz5BG4WCWDUIiTAeSswNMm6des2gnf6w+MQ6RQSH0GQlFOE+VV3RNrJtx3LU+wwx3oKWrRpih49esBP7gcPD3do9dRCz4GdsSZQX2L5pN+t71iIurpP8mQ7OO+0wOY9gTh3K61W547AeSswFBLcF7kHrmFW8E9Wm+SahBIwZI5rM9dVOy/VA1yUHOAaY4pxM4dDa3A3fNW5Nbp17o52rdth3HfDYbppITaetnkP8RWA8O9W5+SNJ23huNkC++P24MqD80qRIudOzTn1AlNcXIzTKafhstUG1FhNMKQEK73RWnyT2t4jEMkhEz6I+bYlGDp5AGav08Nit5nQHtETo2cMgV3YKsalAsDa2qrrmhiA6sDQ82Q81gfa4sQvCbjxiOZKaq+3Xo6heRAFteXbNsAr1pq53VU7UHVUqt6TAlbfMQeHXHwj+QJMmDUSJsH68D1lCdk+I7hEm8I/2Y6Bx4lTiwR9r6YjWdu3aoo952p7uOyxQNCOjfj1Dhcp9fSgHlF6+vQZIuMOwWmHGQLSlLNipWf5NhDUE8XaOiq9RlzG51JGPvrQnTMO5luW8nmQhPPEiHMg6h4QxiGqSar0O7UdO0KeZAc7+VrEno7EtYJLVaxUraJECvda9jW4Bsuw8YQQIT66AhQiXnRYeo2Oq18X96vXTgfWQGfOSLTv3hot2jfB580+Q8sOTfFV11boO6Y7rHYuqwFS9Taqn3MR5X2oOkDVAeWTT68Ya7gHrscvt1LfDsyfT/9ARGw4Dx2k27NRZfpAMorSDjGQSOlm8I+zsEAdz6rfk2GFxw9o3OTf+Oc//4V//OOfbKHu448+xkcffYRGDRqhx6DOsNm9QqnbBGGiJi6gY3URsR32DTYDFzqsNo5RGoo0e1jLTRB98iCuFagdv5ocUwmmWxzlNpCf5qCoJ2815ZUTyjsbrAw0+Z+xZYElCkTVVqg9rzhLfGMwHv369seePWHIy3uIvPw85Bfks8U8c3MzfNmyBUzki5Rt8GAVtReYLtp1QHDaegSyOM96ZXzHjg0kD4KJwFfdwFDga8MRG7j5O+HCvQwV11QFphJ4+eoFEhLjIdu+5i1WSHyMQOFKkQAhor9fOwU9+3ZHo8YN6yyffN4In3z6CRo0aIjGn3/OlmmbNm0KKs2+aIp/f/YZ/vWvf6DRZw3wyee8nU+U7TX8/F9o1LgRGorrnzdAi9bNMfGHkVi9YQETP/8zXC9yceIDp+Yu6jvvs1DE5p6rcPxsPK4zCyVRviwaVwm2frwh2IOFI6XcULVRAYqIu8jgEW+GSfNGolmrz9Hg44YwNDSEg4MDKzKZDNWLuEe1o6MjZA4OsJfJ1M/Tu46O7Nzegd53ULXhYF+1PWpj3bp16NalOxr8owGat/kC0xaPh/3elVVcAg4GcRwpfKJBKU5nbOEeboWAbX64+oBPMj/iYVEFCwOWK8pxJfMqzH0Nlc6aGgC1bpBe4/FbeaodRkwbiCafNcG4sePw559/siUOCj6TIn+XwmKz7/hsZWVFlTYV4EsgFCM6ffo0Jk2chE8aNkK/Mb3hccS8FldDSoPyOE2GdQ6rceHuGSZOTJR41BZ4/uI5DkZFwGWvuUqREiDMDKqUXNVG3ePXYfh/BqCTpgaMjYzZYntZeSlbqyFA3o/gdwOxNqBpEGi9ieZ1tHBvbW2N7j26Ycy3Q+F00FippEXfuRgR57AwaZoTSA3Y+K1BzKmDTJyq6JhHjx7BM8AF8pOkdGUIJpNcj18gT7HF2O+/RssWLREUFITnz16wzlHHaeFKCoyUexha7/kfvS/akB7TN6TXGWgKBcrKyxAZGYVOnTpDb9FoyFNqBtPU4uTEgvaeBy0hD/VBVsFF9VyJ2PPu3Tsw81z1zkrXYssSdO7REcZrjJCXl48KRTkU5Vx8qLM0ggQQpWxQSgetQtI1uvc+f/Q8cQIVOqYUD9EetS+uizYZOJWVuHfvLlauWI5+w3vCcuuyt9AlQ0CKDBZOa5meUXFMSWkxUtNSYBtqzMye0NpS3cJFinuqpM0nzx+Jnj174NKFiwwQ6rQoJO/Z2dlITU2FmZkZ7OzskJyczFyBtyXtCAJFLYChRKRLly6x5KI1a9YgMTERly9fZsAL7qR3BBdVVChw7GgitPtoY/wPw+F7gltNtQMqtVZczIydl+FsVjpxDB+9F69eYF/EXlCki9Z71LpFyGX12hFf6/aDjo4Obt64gQqFkqUrKkGJQvv27oWWlhY0NDqyDKmuXbtCU1MDo0aOxJ6wMOTm3CcKBO01ajHq9Mwff/yBc+fOwcDAAO3bt0enTp1UpWVLLsbZ17JRWaHmVoWyP9k3slkWVo/+nWC62UBJmwCkppduvXk1ohPYEi3v3NOnT+G32YetH0u5pOoxOUzc1JGXqT2mBxYY6ONebi5KFRUoKy1jC+/fz56J5k2/wITxY7F921YcjAjHoYgDCPT3g+6kiWjfri2WLl6Iu3duq/RQdWQqSHTKyvHs6VNsCgpCu3bt0E9bG87r17NUt/3792P3zl1YsngxA2vUiJGMc+kdDhBfgszLz2dGoVtvDawJXMAHXDKdIT3DJYEPvGu4GUJ/3qzWMb8/+QP2XtYITBUaW80hgvUoyOMQbsSQX7tpITr364AF+gvwW24OSsvLUF5WhsSjx6Cp0RFGqw1R9KgAlRXlKCstBhQVKC1+gxvZ17Bi+VJo9+6FtSZrGDdUB4XOFeUVLLx5IDwcWj17YuyYsTiWcBSlxSVMp5CuIgBev3wFZ2dn9O2jjW8m6yI76xoqFWTdeKuU12e0ejVat22O/xiOh+nmhXA6YAT5aVqr4jQyYJRGxveoDdx9XTgwlVCg6FERTF2F4lW60spInWjAbo8hxnw3lMVm22m2wr///Qn09fWR8yCXxWfLiksweeJELFm0GCVvXqNSQaNegpMnjmPP7p0I378Xly9dQP7DB1hnaoIhgwfhxIkTKp9ECpCigvdp+tSpGD5sGH755Rc8KigEAUXJkREREXjx7Bkqysrw6uVLbA3dguZNmmKNkbESGL6ATNMMIyMjfNqwIVq2aoqOXdpimO4AWG1fikAWjazKMYEpjrByMgNz8CorFXiQ+xCm7iuVdl0AQ4gSB3ERmmMxFd21uuLb/3wLg/kL0KlDRyw0MGBr1hUKBa5euox2rVohJTmZgVJWVoLYmCgMHNAPGh3aY+DA/pg18ztkpKciJioS/fpqw8vLS2VupQqUFO6+PXvRrXMXuLu54dq1a3Bzc4NmRw0M6D8ALVq0QFBAIB4/KmIclPPbfQzQ7ouxo8ewhEemowA8VALTsnlzfDN5MqboTkaLL1tg1hpd+J6wUq1ViUAYqQgT21WcYxSKcty6eQsWPsQx3E1W6xb1nEJv4RiMGzcOGenpyMt9gCk6kxgw5FARIZsDg9Hiiyb4448nDJhXL56jb58+0OrZA1tCQ7Dtpy0YPnQIli1ZhF/PnYXupEmYO3cuy9iUgsJESaHA8mXL0EWzE86ePYuAgAC0atUKNB04EhuLuXPmoE3r1oiJimbAvHj2HH4bfNCjW3ckJCRwLkSlChhtLS1EHzqE2JgY9O8/AFMWjYNngjkbdIrzCGCICQytlnBgKirKkZWZBUv5apZmQaZYDYyQQ0foGoyEnp4uWzEoyMvDNxMnwYBESQlMgK8fmjUhYH6HoqIMv929jU8aNcKKZUuZj1NYmI91a00wZtRInD55ArNmzsD48eOZmNQGzIzvvsO4MWNw4/p1lp/bpEkTPMjJhaK8HHdu3UKjhg3h6e4BUtQVZeVITUqGpoYGKJeYc0wlHuTnYfXq1dDW6o2YyEgkxMdj4KBB0F00ls3vOK1V6V1pvVgAU4YrV6/CKsAIgRk8lFgDGPJb9DkwFy5cQGF+HvQmToCB/gLkPngAEqUAf382M37y+AkI7IcPcvFl8+bQGT8BJ44nIjoqEnqTJzHLlJGWitmzZmL69OlsUY04TgoOnc+bO49xAK2Rk56gRGkf7w1IPp2E0E0hDJhdO3ZCUVHBlPC+3WHopKEpAYZEKR+rGDBaiI2KYtw0cNBA6C4cw4ARakJK70obCcdkZmbCqj6OUQKjO0UXBExB/kPoThwPfbJKOfdRXqnAwUMH0bx5M9y5fZtZKAqmm68zQ/NmzTBi2HAM/fpr9OndC1tDQ3AmIw2jRo6AsbEx6LnagPHy9ET7du0QGRnJuIq4S6NDR4wZOQoaHTti6JCvkXs/h1mwR4WFWLZoCbNO5ARyjgHyCvKVHCMBZmBVYLgeVVthFceQjrlx/QYsfGvTMUpRYsCMgq4eB6Yw/yH0dKTAVCIv/yG0tXuDCCorLWWyTx3f/tM2LFm0ECZrjJkyvnf3Nvz9fDFwAAWp9tQAReiYO7duY+Tw4dBfsIClh6WkpMDd1Q2zZs6Er68vTpJFKyf/qRQZaWno3rkr5nz/PZt6CO6rG5jR8IhfpzIuao4ROoblzFUgJycX6zwMVVZJ/WBdwOQxYEiUyFyXkdepqICh4Qp069aNuerkZxCbl5WU4O6dW3iQex+lxa+RmpyE0SNHYOoUPZbGLjXT4pjNqSoqYLzaCJoamjh06BDL/3/251O2tk3p+aUlJYxbaC62dPFitG3ZmomzlPsotZ/rmNo4Zh13WJVBK6KZrJKxtSHXMTQteER+jMsqpdNTVRnxF0jHjGKbKy5euMh1jM54GCzQR05uLtMxnPOuM5EZOWIE5Bv9mJ9CivHVy+c4nngUbi7OGDliGMaNGY0jh2NRUkJJhTWnBgQMKdUzZ85g2rRpbCOHubk5oqOj8eb1ayaqWVczsWP7dmahenTrBldnF5DZlgIjOKaPlhazYEcTEtgGDt2FnGOE8lVZpVQHWMhMBTCULvYEdh6WKruu5hgCiYqTEhi1jiFRImCY8q0E6xBZjKNx8ejSuQtz1ftp98XECTrQGT8efbR6oU2rltDq1QPRkYfw+tVLkA9V2x8BQzNn2tCRnp6OCRMmMHPdvXt3jB83jin0IYMGs90uLb/8EjI7exTmFzBvuVKiyGlKQBzTh6xSVDQSEuKrAMNp434a0Uz5fM7eTmpgKOrmE+wFvxNiGVY90eIgOWGyAXGMLi6ev4iCvALoTtTBQn3u4CkoLkJjr0wZvXjhAkJCQth2naVLl2LFsuUwNjbC1tBQXL1yBQ9zc3H54kVQDIhGmImOJOJH1yicQNcpXEFba8LDw7Fq1SosWrSIuQm0FYjCmjTLJuUr9IoUaBIlsmh9evdG1KFIxB+Jx6ABA6Gn5BgBjGAEt4PmCP4pUA0MZWvv3rcT7ocsJTNQNTjEcroGo6HVpxfiEg7jQV4u9CZPVgEjOiWIJIIobkKhAtpzJMrzZ8/YsYuLC3Qn6+J4YiIjvjowdC6NwdA5cQ+tpdN2HmqParGdh+6LPyGYVOcr50oMmOgo7A/fx2b9UxaSH8N1DI9nc11q+5MxDsYeUANTXPIap06fgv02kzrjMT/aTUfbDm3Qvk1HdNPsjqaNv8AiAwO2l0iIBAEkJYqOSSRETUpz965daNGsOQYNHMT8CmkAi96nQknKYWFhuHr1ag1zLp4RASpqmwaktr/8vHymwD9t9Cm+at0e7Vt1QIsvm7E8P9+TlOfDo5RiPrjWYznSLiargVEoKnDr1k2YeXHLJFhLWlPGwSLXmdCZOww684ajrcaXWEgOXk6OajZLo1S9i4IQqomDKGi1UF8f06dNQ/PmzTFq1Ch2zcfHBx5u7kyftG3bFr169UJMTAwDpjai3+UaiRLFoj/99yfoPaIrdH4cDuMAWh+3UWWEidAD5f2Y2q9CZo4ktEkfKSgsgLOfDAFJahESwJAoUZGn2sI3xRobk23Qd0w3CTCCgSlmX/NPgEOjSyJBCY6/3buHLZtDoT9/AcaPHccmgKRYyQrR5JJ2vlG0ry5uqPmVqleoH3kPH2L1qtXo3lcTRkFzsTHFQp1MqUyAIrpo4Y2SF7wD3ZFZcEFwDCfl6fOn2BMRBtcDFlVWCQQ46ppAcsKIb/pjzOhRuJ6dXavik3ZTAEO1YH1WU0CqtJTFWUpLSpnYkYiIWC4d0zsf8kevZWVm4ofZ30NrYFesDTFQ5fAQLQwQNml2hvyMHew3rUNEwn5cf3RJAkwlWGT9/IXzsPAXcRnhJhMHVeciGWas1mExXwo7VpRTvJev99RGhBQYZk6VYUg6JjkU94k72H2JpaqtvdquiTZEXV5WgajIaGj11sJ0Qx2l2yFooprcEKKLL/CbOBri3O009bqS9CMPHuTCzd8RfqeE2RYNVQdHBvu9q9BVuxP0pujhzu07UFQqJ4IfNsCqbigNv+q8+kGdzTOMKxmwiopynDt7FjoTJmDIxH5wPmRSbXA5GMQ1FOP2iraBzyZPXMnlGVaqVQIe7wKevniK6CORcNq9tkrogYX/qmQwcLmcbjgOLVo2h4urM3JzHjIxqU7Ie5/XSXm1liTPkVUkTqHBodhzUWERQjaFQKNze8w0nVQNFOV6WYY9SxigNH8rP2OWByyyOSXAcM+cHLXs69mQyS0kOXeCa2rWvqesMHXpGGhodsDsH2azvBqWilrPBivB6qIW5IpzitmqzJy4+Zaa3q2oqMTL56+Qnp6GH3+cC41O7TF9uQ68j9WWAsuTlmgl0veoLWQbbHD+Dl+erTPVjKYHYQd3wnUfLdXSqiQHhCsrKThc79Az01aMRzuNNhg3YTzL26M1pRs3brBYCyUxVy+0xCK8XkEz6Rfyc+7fz2FLMtXfqe/8+rVsnD2XgaDAAPTrp42vNNpAZ84wbDjGfRVuOMT0hmqufP3T7WAXYoLwI2HIkmSNqzhGdI5qshaXLl+Cc5AN5Kco30SAwRtUWye6zq/5JdlgTbA+hn7TF23atcKgwYPQf0B/9OvfT1Vodz5do134w4cPh7e3dxWLQ9+lsOR3M75jO/nZ8/2pDWkZwNob0I+325+135/t3tfU7IgOmm0xbGo/mIUugXeiAEXabzrm58QttGNmvZ8tzlxPUeXG1MkxBM6TJ79jX9QeOIdRDp5UEUs/IgBTymw6f26J20yMmT4UvYZ1qVK0hncFla79NNC4cWM23+FLHdwq0VLH/Pnz0eqrL9FtsCa0hndBLyrV2qFzLbo2vBOvh3XGwHFamGc+FWahixk38EVDnkladSBFnx1BucWyYFNEHN2r3GPwDumspMSyrmVhwxZXbIi3VilitRKubr4FOBRY5gF1Ej2WZVVte5/ZpqXo0L491qw2YhaEOIU2b/j6+KJbjy6YaaKLDYkUwXdSLvDx2S8XZfUSMfNYlY4nvydjjpoAQt1XAYaouUVyO2CJjVs8cfYG5xax461ejiGuofWaoyfi4brdGvLTXKTYSmS9oqUGiMsxdUbCZWkyrPL9EZodO2Jz8Cbm1dJGT9ptMnnSZAyZ2Bd2YYaqgRBE/rVauhxE/aH9TNZwCrJCfGosspV7md4pnVXoHHKpf97/E9z2WyKA7UsSqFcjWOUA1sJJSkeKRtD7uDlmGethyODBSE9LY/qM9ilQKGGkHu1oWwi5KgNd+q0PPeY6Rco9lMbqtNUcuyK34dJ92vlGIqQWo7dyDFfECmRmZUL+szc8oy3fssGCOlHdEeTan1m3NCfY7zdEzwFdQUsjRY8e4ddff8WSJUvRc0A3rPKbX5W7VJz5vqCoB0cKCHEdDS4lPvv/7IP07CSJwn1PYAic4uI3LEXES7Ulp2ZHqQOc3QU4XHz4dQ4W7UUgMWrZqgULR9Ky6qwZM9FvaB/oy76FN9tyw0f4r4mO6AvVapBo9uweYc625hz/JR7Zj65AKj7EKaLUaq6FGElrCjpRNqfndhl8jqqVcU0CODBCGZLypc6RbvI8Zoapi8ajyadN0LN7T/Tpo4VhkwfAyE8ftGu2ChEqoKVEfvgxrTZ6RFrCI9QBh5MjkVVlG2DVfQTvJErSQPUfv/+B2LhouG+3A23GrI8QwSkCILIwXonmmGs2Df1G9sIwvQGYsXoybP9mRasWHTWn0OZRjyhLuIc6IPJ4OK4+4PuuOXcQKB8EjJRveNA8Oi4Sblvt4XOUwHm3USSOoU2lbrFrYb1rORwijJhJ5uCqiXjX9up7Ti3WtPXYAR6HLOG2WYZDiftxJZdAUYtMXcfvLEpSeGgdJ/5YPFw228HriKUqEsY7Sz5MfWDRhvL67tO999UztQNLe7Bdw83hvtkBMaciagWlNh1DO/c/CBgCiXQO250fvB4eB0VUjFsgIUbVR5U7fjwfpfq9qudSYOi4PiB5hpf6Ga7T/E7ZYv1OC3iHuuFoxmFkPhQbtgS3VLVCxDnCwftLwBA49EMS2devIWirHI5b18HvFN+lL0Zcup9I5bUyImsfYTVx1YEgj1b6jhQM7vaL9mn6QnsDHALNELI7EKlXTyo3o9PPFlxlpS7xEdcJoA/mGCFa5M4XFhXicHwsbL3XwT2Cixb3WzgHcYKJMM4JzHt+Sw5xVaA+T9QAAALKSURBVJDENIDS3flPqXCgxNSDfiVEBnmSLdZvXwdHX1tEJoazTRP81z4Ed5CSzcKtoizVbzsQGNIfvaB7dO0vAyMAevX6FW7fvoXQnzazXOENsfSbL/TzKHxiyeY9St1DOkZM8mqzbKqovVKEyKrQTJgKAyxtPYJo1wltOKdfFEmxh/NeM5i5GCNouxxpWaeRmX+hCvGCG05dOIp5i+bATLYWGdeTEBb7M3SnT8Lu6G3KzVzcQv0twLBAGluirQBtWs/MzIJf4EasdVkBNwqsp8lYSjpF4olb2FadVCKOb3ioyh0kRmqxUU8UxfPiR3nsEZDkAMcdpjBfb4yQrSEICd2MY7/E4Sb7TRjSJSQ6xAGCYzJxLf8SfjCYDY8AF5YBnpGdjG9nT0VcRhT7pRDOMdf+GseIcCjnGmWcsRIoVyjYEsndO3fx847tMLVfDZvANfCOsWbmM+CMDeRnrSG2ztQERqpjOKj0PPthnmQHuIVbwMxrFSwdaZE/CoX5j1D0pAgHDkYg6eKJt5rjH5fMge9mL9x4dBUX7p7F7B9n4vgvR+AZ4Iq1NkaYPuObvwaMECNVLYnB0uIShRtpw8WLZy9xNuMcQjYHw9xuLdY6r4Rs0zq477eG7zFblqpeGzjyJBk2HLaBa5glbAPWYo39Stg4WmN3WBiuZ19HcUkxyiv4ngVapzp4KAJJl47V6rAJUSJ9woHxVgJzBrPnEzBxGDthFLYd2Irky8f/ZmBUCNV9QOtE+fl5bO61d+9etvHc0ckBltZmMLU0honlKphaGcHS1owF2EM2bWaL8RfO/4KnlNtXx1IsARMReRCnLx2vl2MImPlL52BjKOeY83fO4of5s5D46xHEpcZAd/pkjJ049r8PTN2QKdNkiOuknFfvC+qb7woMcc5qc0N4Brjh/G9pOJISjRUmS5F8KRHbD23BhZx0mNmY4v8BX/sx3Y23R6cAAAAASUVORK5CYII=;" vertex="1" parent="1">
          <mxGeometry x="70" y="324" width="70" height="78" as="geometry" />
        </mxCell>
        <mxCell id="FmlcawvMYQFnZqVSC0_z-2" value="" style="shape=image;verticalLabelPosition=bottom;labelBackgroundColor=default;verticalAlign=top;aspect=fixed;imageAspect=0;image=data:image/png,iVBORw0KGgoAAAANSUhEUgAAADUAAAAuCAYAAACI91EoAAAPKklEQVRoBbVaCVRV5do+M4PMKGjSTVE0DcgEcQDFtNLSHHMorXtd5nQdc/Y6omBU5MCgJXDAAXNAutcSLTEVOZiWy1Jr2a/eDGXQHFKbFZ5/Pe9mn3NAOBxdt73WWXv4vv3td3ze4TuaxKzdyCwsQbalHNnF5cgqrqj+8fr+X8res/hnQgaejOkDvcEIrVYLD49GaN++PV58cQAWL16MHTt24MSJE7hy5Qr+/PNP2B+85/Mvv/wS27dvx8KFC9GvXz+0a9cOjRo1gkajgV5vxFM9nsfUxGwk7/0GWcVlMNdBi40+heb3C84jPnUTNOsL/k9e4ou2STWZIcOZRaWIzzmEQePmwt3DCzqNBt4+3ugWHY1p06Yif08+bt68aU+/09e3bt3Cxx9/jMmTJ6Nrty7w8lLW9/Txx+Cxs7Ei5zAyj1yupq9+Bs3FV7D23yegISPZIgkyZWOMz1QmM46UYk5KLiJ69IFOr4dep0VoWDgWLFiAL774Anfv3nWaAUcTKysrZb15c+eifftQ+Y7JxQURPV/AnJRdyKBF2dGl0qeeaWlmS7nClPpQYUphRn15w+ESTH9nC4Lbd5CPeHh6YvjwYfgwL+8+06pN8B9//IGKigp89913OHPmjJx5z+f1HVUA7t39Ezt35mLo0KHw9vGBwWBASHgUZryzCe8fvIhsC81NdRebVdGi6D4axY9sAzZtlSHjyCVMik9Hizah0On08PPzx/z583Gx5CL4ceWwXfG+qqoK165dQ0FBAd59911MnToVL7/8MoYMGSJn3q9atQqfffYZbty4IfPVleT96pvKqipcuPBfzJkzB00CAqE3GESwkxMykH64xGpFNoUoDJExMb+aAwqDmZYyzEjagpZtw8TkHnvsMby5ciV++uknO4bsyQDu3LmD/fv3Y9asWejcuTM8PDzE8en89j8CQteuXTF79mwcOHAAv/32m5UvikgVEwV05eoVxMfHIzi4FfQGPULCIjFz1VbxcQXUbApRFVQnUxmHL2FC3HtoHRoBo9GIXr17Izs7Cz///LP147aLKjGnz499jhkzZqBLly5wd3dHUFAQBg0aJH6XmJgI9UdNDxw4EM2aNYOrq6swN3PmTPGle/fuybIqU+o3bty8gSyzGb169YLJxYQ2T0ZhckI6Nhy6KOamMqOerUypPkStzVm7E63adRANRUZGiCnVhmb1gwQJgkWfPn3E9v38/DBixAhs2rQJp0+fFu1R4jx4vn37Nk6dOoWNGzdi+PDh8PT0hE6nw3PPPSfz1bnq+uqZ2tyzZw86d46S+W3CowQ87of6sprmR06T95xBzAvD4eLqBj9/P2zeshm//vqruvZ95/LycowaNUoYatKkiZjet99+2yCIUBicRy0JhOt0GDlypAjhvo9UP7hz+w7S09MR2LQpXF3d0XvIP7B699e1/KsWU4TDsYuSEfjI36DRajFlyhSUV5Tf58zqR8nsmjVrhCgSNn78eFy8eFEddupcUlKCsWPHiinSbAkijg6uP3HiJOh1OjR7NBgT4tbDXGQLP7Q0QT+anrm4Am/vOo6Inv1gMBjRpk0bFBYW4l49MYhm8sMPP6Bt27bQ6/Xo1q0bvvnmG0f01Dt27tw5dOjQQcyKgET0rO+ghvfk5+OJJ54Q64juMxSJO47aaauiOvhalCj997lvwz+wucD38uXLcf36dSsS1f4IfSw7O1sYaty4MZKSksDg+TAHBbR69WrRFtOurKwsh8v8+OOPWLhoIYwmI/wDH8Hri5Nhtti0ZQWK5PwziO77EvR6g+RxRUVFDon85ZdfMHr0aIHqkJAQCa4OKWlgkFr39vaW9RjTHB1VlZXYu28fwsPDodfp8czQMVjzkc23hCma3uzknQhu96QsygBZWlrqaF1BMSaxRK7o6GiHWYLDhaoHCedPPfWUJMgMB/WhoDK9CiUllzB+/ARoNRqEhEZiXtqHVhPUKFBehhHTlsHLxx8mowlbt261Q6/aUUNZlkGY4GAymSRbcIbwhuYMGDBAmHJxcXGIgqTo7r17SE1LlQDPBHvMglVWExRNrS84h56DXoNWp0NoaChoeg0dZIofZwB95ZVXZLpj6Ta0IgTSqXkKiilUQ8fevXsFYOiHL4yejJR9Z5Xcj6nGiq2F6BD9jJjesOHDJfFsaEEy5e/vLxlH//79G5ru1Hjfvn1FU25ubk6ZM5PkwYMHC92dnu6HFTlFYoIaMjVr7Xa0bh8ug3PmzpXMuiEqmOdFRUUJEfQFRwG6obU4TuQMDg4WGhgmnNH61atXpQZjXtkmtCMWrP+PlE9ifuOWpErApdOtXbMWRLaGDqYt06dPFyJatGiBQ4cONfSKw3FWymoCPGHCBIdz1UHGrGXLlolgA5q3wIx3tihMMVUfNSMBHt6+MsiczJl4Q7T69NNPJQASMJju8CMPc/C9N954Q3yJgfyTTz5xehlmNBQGq+R/rkhHtqU6TRo68V8wubpJdr1z506nF2Tkf/rpp0UYzEDIpJppO7sIBcjMJTAwULQeGRn5QGtILhgYKPSPW5Kiml8ZBo+bA4PJBC8vT+zatctZegT28/PzERAQIBpjafD11187rTFqiJk8yxVqyNfX94G0RELNZjOaN28u9L++aI2U+xKnho6fD6OLq3SFcnNzG2TK3onZNGERxxKCEM8S4uDBg5Ji1WfGfM4UjBrq0aOHIChNKC4uzinTtycwIyMDzZo2hdHFDeMWp0hHTIBi5LQ4NPL0htFgQE5OjlPIY78wsw9m6MwBKXGiFx2YzLG8YGZ9+fJlOTPp5fMlS5YI2jEusQZjps4w8UBHFZCakgIfH2808vTBpOXvKZDOFGnMv9agcWBzSTnS0tJqlNfOfISaI9HsJ5AxQiyJpZ/07NkTr732GiZOnIhXX30VsbGxYN3Fcc4jQ3zPUWZeHw3034T4eBiMRvg3DcK0t7Klfymamp6UgxYhTwhTbEY+yAfIEMv8kydPggIJCwsTYu17Eo6umT9mZmbiq6++euBYxz4jUZPrs5cyNzVPDb7lWLaxAGGdY2WQ0jx//nx9wqnxnI5O80pJSRFfUrNspi1qn4Kd144dO6JTp05y5j0TVo5zHgmiP7IdsG7dOpw9e9Zp82frja0DrhER8wziNh20McWyo3u/EfIR9gCOHz9eg/i6bthrIPyrfQYSyHhFSGZZzgYLieQcxh22xPbt2yctaWqU45wXEREhcUYVBJ/l5eU5TGhVeuibRE4y9eywsVj98WmVqTKYiy5jyHi2kz3g6+MjizoKpGxIvvnmm2AdxQUpdaLY0qVLhXACR0PxigjIeUxKCRoxMTESfLleq1atpOhkz72+o7LynsA5w4mLmzteeSMB6YWXFKbULtKUxCwEBT8ufrVo0SKwuqzruHTpkqRHNDUiXevWraV/R3h+2PyPHVumWewXtmzZUgTFZJkA8v3339dFBpj3zZw1EzqdFkGt22HGqq3CkPQo2JElAr6T9wUiYp8XE+zaras4bu3VWA4wL2M8IkP0kw8++KBeAdR+v6F7xi6uR5OkxuhrbP7UpTFLkUW0q9Fq0O35l/B27jHrXoBk6czUM45cxkuTFsDL11+2VFJTU3H71m0rHbdv38K8+fOtDt69e/eHSousC9ZzQTSlD9IcyRghn9s9tvqqCgz47Il4e3vB08cPo2YmIP3wDzZNsdenmuDyjQVoFxENrVYnndMzp09XI1EV0tJSrTGIkmQhaZ9Z1EPjQz2mvxFY+B0CCNGSQq6qZM1bhc8/P4ru3WNALT3ZrTfisgtq7KlpbBsCFdJ4HzZlKXz9A+Di6oqEhHjcuHkTX508ibBQbhLoJM9jv/yvYkiVArtVu3fvFoa460GUO3bsGK5euYolS5fC3d0Nvk0CRUvcCbHfD5Dgqz6g1t7KPYbwrr2kqxTcsiU+O3gQY8b8Q2lfaTRYuXKlXf9CJeGvObMQJcpSW/Qv+jPhPiSktQi4U68XkbijuAZDtLoaTJE57hhOjHsfTR/5G3RaPSIiOsLX10cWjugY6VRV/L9ikdbAAEv/ImNMr0LDwgSkglq2waQVGwQLVKUoZytTZdX7vcq2yLqCCxgwdha8CNs6ncA8TS8vd+dfbna1BfL7779j27ZtgrhshRPCfXz9MXj8PKzbf86KePaM3acplds1e04j6pnBMLm4QqPR4tFHH0V5eVntb/7l99QWM/vHH1diKDcuYvq/LBsDZrvNbQXwyiU81bGTqGw9ZlnKBPvbdewKA/d5DUbZb6pZHtTdE/xfcUqGmP0PGzZM+pFG7tpHP4u3dhyVvV177diureZHs2MvupqhaglkWsqxcpsFbTt0hk6vk2KuZ49YXPivGuUfrnfumGllTcI6k+Vne/eSqtZgNCCsc0/EbzkMc1G5lBiqVdkYUviQ4KtuDNcc5IRS6Xqu/uiUxC8DbVqrlzppfVqqrUpVwodjWh2N1lI4GWLm36RJY2h1BpgMeoRHP4ukD0+Ags4uLq2hANUMiXzMjjTcLeANu0q0S0Vj1FopzJx0lM/KkVJwHrEDXoVOp+zf6gxGkeJhbvdUVta7O+KIlxpjVcpO41FLkRSWGo1SRLq6uSF28N+RvO+sEKymdTUVQHqVXQ9mFpqkHUdA/6k5SWGEz1QpKNcVmBifDi8fXxiFOR2MJheB3K05m3H9+jUQrZjhU9qODo5zHuez2MvZslkpI7RkRguDXgO/gGaYsGydaEelj5pQr2ufqaC493KhSXp/M1LzTwtjyv8QbAzVfinbQu1ViKPG9B8JDy8fMQ2Rqt6IR5oHSV+dpsOsm70JZvuspJmsXrt+Xe75nLVQcnKy1FQBbI/pDJL2mAw6eHp5IXbgaAUQiiuqzc1mRfaCVmgsEzdJ2l6I5A0bodm/vwCJG7bhvYJzgii2F+qWiMp4RlEZlmbmo0vfl+DbJADu7q4w6PSShDIR5Y87++xZsJ3MviD/NuDv31ieq3N41ut1aOTuCr/GAYh6bgjizJ+K8ChAxX/qF7SYo6UUyR+dRGJKJgqLj0PDTDzv37vxVmYeNhy4gCz6lvxz5P6Faj/nRzMKL2H5xgMY+Po8tI/sAbZ/ffwDpDvFmMKmCP9Ywh0VBnK90QSTqzs8PL1kXkDQY/LegHELEL/lEMyWCqvJ18+Q4kMCDJYypOWfwsrULOwrOIjLFdfx/xutsW2ReHJiAAAAAElFTkSuQmCC;" vertex="1" parent="1">
          <mxGeometry x="78.5" y="250" width="57.61" height="50" as="geometry" />
        </mxCell>
      </root>
    </mxGraphModel>
  </diagram>
</mxfile>
